<svg width="112" height="112" viewBox="0 0 112 112" fill="none" xmlns="http://www.w3.org/2000/svg">
<path fill-rule="evenodd" clip-rule="evenodd" d="M2 1C2 1.55229 1.55231 2 1 2C0.447693 2 0 1.55229 0 1C0 0.447708 0.447693 0 1 0C1.55231 0 2 0.447708 2 1ZM11 2C11.5523 2 12 1.55229 12 1C12 0.447708 11.5523 0 11 0C10.4477 0 10 0.447708 10 1C10 1.55229 10.4477 2 11 2ZM22 1C22 1.55229 21.5523 2 21 2C20.4477 2 20 1.55229 20 1C20 0.447708 20.4477 0 21 0C21.5523 0 22 0.447708 22 1ZM31 2C31.5523 2 32 1.55229 32 1C32 0.447708 31.5523 0 31 0C30.4477 0 30 0.447708 30 1C30 1.55229 30.4477 2 31 2ZM42 1C42 1.55229 41.5523 2 41 2C40.4477 2 40 1.55229 40 1C40 0.447708 40.4477 0 41 0C41.5523 0 42 0.447708 42 1ZM51 2C51.5523 2 52 1.55229 52 1C52 0.447708 51.5523 0 51 0C50.4477 0 50 0.447708 50 1C50 1.55229 50.4477 2 51 2ZM62 1C62 1.55229 61.5523 2 61 2C60.4477 2 60 1.55229 60 1C60 0.447708 60.4477 0 61 0C61.5523 0 62 0.447708 62 1ZM71 2C71.5523 2 72 1.55229 72 1C72 0.447708 71.5523 0 71 0C70.4477 0 70 0.447708 70 1C70 1.55229 70.4477 2 71 2ZM82 1C82 1.55229 81.5523 2 81 2C80.4477 2 80 1.55229 80 1C80 0.447708 80.4477 0 81 0C81.5523 0 82 0.447708 82 1ZM91 2C91.5523 2 92 1.55229 92 1C92 0.447708 91.5523 0 91 0C90.4477 0 90 0.447708 90 1C90 1.55229 90.4477 2 91 2ZM102 1C102 1.55229 101.552 2 101 2C100.448 2 100 1.55229 100 1C100 0.447708 100.448 0 101 0C101.552 0 102 0.447708 102 1ZM111 2C111.552 2 112 1.55229 112 1C112 0.447708 111.552 0 111 0C110.448 0 110 0.447708 110 1C110 1.55229 110.448 2 111 2ZM112 11C112 11.5523 111.552 12 111 12C110.448 12 110 11.5523 110 11C110 10.4477 110.448 10 111 10C111.552 10 112 10.4477 112 11ZM101 12C101.552 12 102 11.5523 102 11C102 10.4477 101.552 10 101 10C100.448 10 100 10.4477 100 11C100 11.5523 100.448 12 101 12ZM92 11C92 11.5523 91.5523 12 91 12C90.4477 12 90 11.5523 90 11C90 10.4477 90.4477 10 91 10C91.5523 10 92 10.4477 92 11ZM81 12C81.5523 12 82 11.5523 82 11C82 10.4477 81.5523 10 81 10C80.4477 10 80 10.4477 80 11C80 11.5523 80.4477 12 81 12ZM72 11C72 11.5523 71.5523 12 71 12C70.4477 12 70 11.5523 70 11C70 10.4477 70.4477 10 71 10C71.5523 10 72 10.4477 72 11ZM61 12C61.5523 12 62 11.5523 62 11C62 10.4477 61.5523 10 61 10C60.4477 10 60 10.4477 60 11C60 11.5523 60.4477 12 61 12ZM52 11C52 11.5523 51.5523 12 51 12C50.4477 12 50 11.5523 50 11C50 10.4477 50.4477 10 51 10C51.5523 10 52 10.4477 52 11ZM41 12C41.5523 12 42 11.5523 42 11C42 10.4477 41.5523 10 41 10C40.4477 10 40 10.4477 40 11C40 11.5523 40.4477 12 41 12ZM32 11C32 11.5523 31.5523 12 31 12C30.4477 12 30 11.5523 30 11C30 10.4477 30.4477 10 31 10C31.5523 10 32 10.4477 32 11ZM21 12C21.5523 12 22 11.5523 22 11C22 10.4477 21.5523 10 21 10C20.4477 10 20 10.4477 20 11C20 11.5523 20.4477 12 21 12ZM12 11C12 11.5523 11.5523 12 11 12C10.4477 12 10 11.5523 10 11C10 10.4477 10.4477 10 11 10C11.5523 10 12 10.4477 12 11ZM1 12C1.55231 12 2 11.5523 2 11C2 10.4477 1.55231 10 1 10C0.447693 10 0 10.4477 0 11C0 11.5523 0.447693 12 1 12ZM111 22C111.552 22 112 21.5523 112 21C112 20.4477 111.552 20 111 20C110.448 20 110 20.4477 110 21C110 21.5523 110.448 22 111 22ZM102 21C102 21.5523 101.552 22 101 22C100.448 22 100 21.5523 100 21C100 20.4477 100.448 20 101 20C101.552 20 102 20.4477 102 21ZM91 22C91.5523 22 92 21.5523 92 21C92 20.4477 91.5523 20 91 20C90.4477 20 90 20.4477 90 21C90 21.5523 90.4477 22 91 22ZM82 21C82 21.5523 81.5523 22 81 22C80.4477 22 80 21.5523 80 21C80 20.4477 80.4477 20 81 20C81.5523 20 82 20.4477 82 21ZM71 22C71.5523 22 72 21.5523 72 21C72 20.4477 71.5523 20 71 20C70.4477 20 70 20.4477 70 21C70 21.5523 70.4477 22 71 22ZM62 21C62 21.5523 61.5523 22 61 22C60.4477 22 60 21.5523 60 21C60 20.4477 60.4477 20 61 20C61.5523 20 62 20.4477 62 21ZM51 22C51.5523 22 52 21.5523 52 21C52 20.4477 51.5523 20 51 20C50.4477 20 50 20.4477 50 21C50 21.5523 50.4477 22 51 22ZM42 21C42 21.5523 41.5523 22 41 22C40.4477 22 40 21.5523 40 21C40 20.4477 40.4477 20 41 20C41.5523 20 42 20.4477 42 21ZM31 22C31.5523 22 32 21.5523 32 21C32 20.4477 31.5523 20 31 20C30.4477 20 30 20.4477 30 21C30 21.5523 30.4477 22 31 22ZM22 21C22 21.5523 21.5523 22 21 22C20.4477 22 20 21.5523 20 21C20 20.4477 20.4477 20 21 20C21.5523 20 22 20.4477 22 21ZM11 22C11.5523 22 12 21.5523 12 21C12 20.4477 11.5523 20 11 20C10.4477 20 10 20.4477 10 21C10 21.5523 10.4477 22 11 22ZM2 21C2 21.5523 1.55231 22 1 22C0.447693 22 0 21.5523 0 21C0 20.4477 0.447693 20 1 20C1.55231 20 2 20.4477 2 21ZM112 31C112 31.5523 111.552 32 111 32C110.448 32 110 31.5523 110 31C110 30.4477 110.448 30 111 30C111.552 30 112 30.4477 112 31ZM101 32C101.552 32 102 31.5523 102 31C102 30.4477 101.552 30 101 30C100.448 30 100 30.4477 100 31C100 31.5523 100.448 32 101 32ZM92 31C92 31.5523 91.5523 32 91 32C90.4477 32 90 31.5523 90 31C90 30.4477 90.4477 30 91 30C91.5523 30 92 30.4477 92 31ZM81 32C81.5523 32 82 31.5523 82 31C82 30.4477 81.5523 30 81 30C80.4477 30 80 30.4477 80 31C80 31.5523 80.4477 32 81 32ZM72 31C72 31.5523 71.5523 32 71 32C70.4477 32 70 31.5523 70 31C70 30.4477 70.4477 30 71 30C71.5523 30 72 30.4477 72 31ZM61 32C61.5523 32 62 31.5523 62 31C62 30.4477 61.5523 30 61 30C60.4477 30 60 30.4477 60 31C60 31.5523 60.4477 32 61 32ZM52 31C52 31.5523 51.5523 32 51 32C50.4477 32 50 31.5523 50 31C50 30.4477 50.4477 30 51 30C51.5523 30 52 30.4477 52 31ZM41 32C41.5523 32 42 31.5523 42 31C42 30.4477 41.5523 30 41 30C40.4477 30 40 30.4477 40 31C40 31.5523 40.4477 32 41 32ZM32 31C32 31.5523 31.5523 32 31 32C30.4477 32 30 31.5523 30 31C30 30.4477 30.4477 30 31 30C31.5523 30 32 30.4477 32 31ZM21 32C21.5523 32 22 31.5523 22 31C22 30.4477 21.5523 30 21 30C20.4477 30 20 30.4477 20 31C20 31.5523 20.4477 32 21 32ZM12 31C12 31.5523 11.5523 32 11 32C10.4477 32 10 31.5523 10 31C10 30.4477 10.4477 30 11 30C11.5523 30 12 30.4477 12 31ZM1 32C1.55231 32 2 31.5523 2 31C2 30.4477 1.55231 30 1 30C0.447693 30 0 30.4477 0 31C0 31.5523 0.447693 32 1 32ZM111 42C111.552 42 112 41.5523 112 41C112 40.4477 111.552 40 111 40C110.448 40 110 40.4477 110 41C110 41.5523 110.448 42 111 42ZM102 41C102 41.5523 101.552 42 101 42C100.448 42 100 41.5523 100 41C100 40.4477 100.448 40 101 40C101.552 40 102 40.4477 102 41ZM91 42C91.5523 42 92 41.5523 92 41C92 40.4477 91.5523 40 91 40C90.4477 40 90 40.4477 90 41C90 41.5523 90.4477 42 91 42ZM82 41C82 41.5523 81.5523 42 81 42C80.4477 42 80 41.5523 80 41C80 40.4477 80.4477 40 81 40C81.5523 40 82 40.4477 82 41ZM71 42C71.5523 42 72 41.5523 72 41C72 40.4477 71.5523 40 71 40C70.4477 40 70 40.4477 70 41C70 41.5523 70.4477 42 71 42ZM62 41C62 41.5523 61.5523 42 61 42C60.4477 42 60 41.5523 60 41C60 40.4477 60.4477 40 61 40C61.5523 40 62 40.4477 62 41ZM51 42C51.5523 42 52 41.5523 52 41C52 40.4477 51.5523 40 51 40C50.4477 40 50 40.4477 50 41C50 41.5523 50.4477 42 51 42ZM42 41C42 41.5523 41.5523 42 41 42C40.4477 42 40 41.5523 40 41C40 40.4477 40.4477 40 41 40C41.5523 40 42 40.4477 42 41ZM31 42C31.5523 42 32 41.5523 32 41C32 40.4477 31.5523 40 31 40C30.4477 40 30 40.4477 30 41C30 41.5523 30.4477 42 31 42ZM22 41C22 41.5523 21.5523 42 21 42C20.4477 42 20 41.5523 20 41C20 40.4477 20.4477 40 21 40C21.5523 40 22 40.4477 22 41ZM11 42C11.5523 42 12 41.5523 12 41C12 40.4477 11.5523 40 11 40C10.4477 40 10 40.4477 10 41C10 41.5523 10.4477 42 11 42ZM2 41C2 41.5523 1.55231 42 1 42C0.447693 42 0 41.5523 0 41C0 40.4477 0.447693 40 1 40C1.55231 40 2 40.4477 2 41ZM112 51C112 51.5523 111.552 52 111 52C110.448 52 110 51.5523 110 51C110 50.4477 110.448 50 111 50C111.552 50 112 50.4477 112 51ZM101 52C101.552 52 102 51.5523 102 51C102 50.4477 101.552 50 101 50C100.448 50 100 50.4477 100 51C100 51.5523 100.448 52 101 52ZM92 51C92 51.5523 91.5523 52 91 52C90.4477 52 90 51.5523 90 51C90 50.4477 90.4477 50 91 50C91.5523 50 92 50.4477 92 51ZM81 52C81.5523 52 82 51.5523 82 51C82 50.4477 81.5523 50 81 50C80.4477 50 80 50.4477 80 51C80 51.5523 80.4477 52 81 52ZM72 51C72 51.5523 71.5523 52 71 52C70.4477 52 70 51.5523 70 51C70 50.4477 70.4477 50 71 50C71.5523 50 72 50.4477 72 51ZM61 52C61.5523 52 62 51.5523 62 51C62 50.4477 61.5523 50 61 50C60.4477 50 60 50.4477 60 51C60 51.5523 60.4477 52 61 52ZM52 51C52 51.5523 51.5523 52 51 52C50.4477 52 50 51.5523 50 51C50 50.4477 50.4477 50 51 50C51.5523 50 52 50.4477 52 51ZM41 52C41.5523 52 42 51.5523 42 51C42 50.4477 41.5523 50 41 50C40.4477 50 40 50.4477 40 51C40 51.5523 40.4477 52 41 52ZM32 51C32 51.5523 31.5523 52 31 52C30.4477 52 30 51.5523 30 51C30 50.4477 30.4477 50 31 50C31.5523 50 32 50.4477 32 51ZM21 52C21.5523 52 22 51.5523 22 51C22 50.4477 21.5523 50 21 50C20.4477 50 20 50.4477 20 51C20 51.5523 20.4477 52 21 52ZM12 51C12 51.5523 11.5523 52 11 52C10.4477 52 10 51.5523 10 51C10 50.4477 10.4477 50 11 50C11.5523 50 12 50.4477 12 51ZM1 52C1.55231 52 2 51.5523 2 51C2 50.4477 1.55231 50 1 50C0.447693 50 0 50.4477 0 51C0 51.5523 0.447693 52 1 52Z" fill="#D5D2D0"/>
<path fill-rule="evenodd" clip-rule="evenodd" d="M2 61C2 61.5523 1.55231 62 1 62C0.447693 62 0 61.5523 0 61C0 60.4477 0.447693 60 1 60C1.55231 60 2 60.4477 2 61ZM11 62C11.5523 62 12 61.5523 12 61C12 60.4477 11.5523 60 11 60C10.4477 60 10 60.4477 10 61C10 61.5523 10.4477 62 11 62ZM22 61C22 61.5523 21.5523 62 21 62C20.4477 62 20 61.5523 20 61C20 60.4477 20.4477 60 21 60C21.5523 60 22 60.4477 22 61ZM31 62C31.5523 62 32 61.5523 32 61C32 60.4477 31.5523 60 31 60C30.4477 60 30 60.4477 30 61C30 61.5523 30.4477 62 31 62ZM42 61C42 61.5523 41.5523 62 41 62C40.4477 62 40 61.5523 40 61C40 60.4477 40.4477 60 41 60C41.5523 60 42 60.4477 42 61ZM51 62C51.5523 62 52 61.5523 52 61C52 60.4477 51.5523 60 51 60C50.4477 60 50 60.4477 50 61C50 61.5523 50.4477 62 51 62ZM62 61C62 61.5523 61.5523 62 61 62C60.4477 62 60 61.5523 60 61C60 60.4477 60.4477 60 61 60C61.5523 60 62 60.4477 62 61ZM71 62C71.5523 62 72 61.5523 72 61C72 60.4477 71.5523 60 71 60C70.4477 60 70 60.4477 70 61C70 61.5523 70.4477 62 71 62ZM82 61C82 61.5523 81.5523 62 81 62C80.4477 62 80 61.5523 80 61C80 60.4477 80.4477 60 81 60C81.5523 60 82 60.4477 82 61ZM91 62C91.5523 62 92 61.5523 92 61C92 60.4477 91.5523 60 91 60C90.4477 60 90 60.4477 90 61C90 61.5523 90.4477 62 91 62ZM102 61C102 61.5523 101.552 62 101 62C100.448 62 100 61.5523 100 61C100 60.4477 100.448 60 101 60C101.552 60 102 60.4477 102 61ZM111 62C111.552 62 112 61.5523 112 61C112 60.4477 111.552 60 111 60C110.448 60 110 60.4477 110 61C110 61.5523 110.448 62 111 62ZM112 71C112 71.5523 111.552 72 111 72C110.448 72 110 71.5523 110 71C110 70.4477 110.448 70 111 70C111.552 70 112 70.4477 112 71ZM101 72C101.552 72 102 71.5523 102 71C102 70.4477 101.552 70 101 70C100.448 70 100 70.4477 100 71C100 71.5523 100.448 72 101 72ZM92 71C92 71.5523 91.5523 72 91 72C90.4477 72 90 71.5523 90 71C90 70.4477 90.4477 70 91 70C91.5523 70 92 70.4477 92 71ZM81 72C81.5523 72 82 71.5523 82 71C82 70.4477 81.5523 70 81 70C80.4477 70 80 70.4477 80 71C80 71.5523 80.4477 72 81 72ZM72 71C72 71.5523 71.5523 72 71 72C70.4477 72 70 71.5523 70 71C70 70.4477 70.4477 70 71 70C71.5523 70 72 70.4477 72 71ZM61 72C61.5523 72 62 71.5523 62 71C62 70.4477 61.5523 70 61 70C60.4477 70 60 70.4477 60 71C60 71.5523 60.4477 72 61 72ZM52 71C52 71.5523 51.5523 72 51 72C50.4477 72 50 71.5523 50 71C50 70.4477 50.4477 70 51 70C51.5523 70 52 70.4477 52 71ZM41 72C41.5523 72 42 71.5523 42 71C42 70.4477 41.5523 70 41 70C40.4477 70 40 70.4477 40 71C40 71.5523 40.4477 72 41 72ZM32 71C32 71.5523 31.5523 72 31 72C30.4477 72 30 71.5523 30 71C30 70.4477 30.4477 70 31 70C31.5523 70 32 70.4477 32 71ZM21 72C21.5523 72 22 71.5523 22 71C22 70.4477 21.5523 70 21 70C20.4477 70 20 70.4477 20 71C20 71.5523 20.4477 72 21 72ZM12 71C12 71.5523 11.5523 72 11 72C10.4477 72 10 71.5523 10 71C10 70.4477 10.4477 70 11 70C11.5523 70 12 70.4477 12 71ZM1 72C1.55231 72 2 71.5523 2 71C2 70.4477 1.55231 70 1 70C0.447693 70 0 70.4477 0 71C0 71.5523 0.447693 72 1 72ZM111 82C111.552 82 112 81.5523 112 81C112 80.4477 111.552 80 111 80C110.448 80 110 80.4477 110 81C110 81.5523 110.448 82 111 82ZM102 81C102 81.5523 101.552 82 101 82C100.448 82 100 81.5523 100 81C100 80.4477 100.448 80 101 80C101.552 80 102 80.4477 102 81ZM91 82C91.5523 82 92 81.5523 92 81C92 80.4477 91.5523 80 91 80C90.4477 80 90 80.4477 90 81C90 81.5523 90.4477 82 91 82ZM82 81C82 81.5523 81.5523 82 81 82C80.4477 82 80 81.5523 80 81C80 80.4477 80.4477 80 81 80C81.5523 80 82 80.4477 82 81ZM71 82C71.5523 82 72 81.5523 72 81C72 80.4477 71.5523 80 71 80C70.4477 80 70 80.4477 70 81C70 81.5523 70.4477 82 71 82ZM62 81C62 81.5523 61.5523 82 61 82C60.4477 82 60 81.5523 60 81C60 80.4477 60.4477 80 61 80C61.5523 80 62 80.4477 62 81ZM51 82C51.5523 82 52 81.5523 52 81C52 80.4477 51.5523 80 51 80C50.4477 80 50 80.4477 50 81C50 81.5523 50.4477 82 51 82ZM42 81C42 81.5523 41.5523 82 41 82C40.4477 82 40 81.5523 40 81C40 80.4477 40.4477 80 41 80C41.5523 80 42 80.4477 42 81ZM31 82C31.5523 82 32 81.5523 32 81C32 80.4477 31.5523 80 31 80C30.4477 80 30 80.4477 30 81C30 81.5523 30.4477 82 31 82ZM22 81C22 81.5523 21.5523 82 21 82C20.4477 82 20 81.5523 20 81C20 80.4477 20.4477 80 21 80C21.5523 80 22 80.4477 22 81ZM11 82C11.5523 82 12 81.5523 12 81C12 80.4477 11.5523 80 11 80C10.4477 80 10 80.4477 10 81C10 81.5523 10.4477 82 11 82ZM2 81C2 81.5523 1.55231 82 1 82C0.447693 82 0 81.5523 0 81C0 80.4477 0.447693 80 1 80C1.55231 80 2 80.4477 2 81ZM112 91C112 91.5523 111.552 92 111 92C110.448 92 110 91.5523 110 91C110 90.4477 110.448 90 111 90C111.552 90 112 90.4477 112 91ZM101 92C101.552 92 102 91.5523 102 91C102 90.4477 101.552 90 101 90C100.448 90 100 90.4477 100 91C100 91.5523 100.448 92 101 92ZM92 91C92 91.5523 91.5523 92 91 92C90.4477 92 90 91.5523 90 91C90 90.4477 90.4477 90 91 90C91.5523 90 92 90.4477 92 91ZM81 92C81.5523 92 82 91.5523 82 91C82 90.4477 81.5523 90 81 90C80.4477 90 80 90.4477 80 91C80 91.5523 80.4477 92 81 92ZM72 91C72 91.5523 71.5523 92 71 92C70.4477 92 70 91.5523 70 91C70 90.4477 70.4477 90 71 90C71.5523 90 72 90.4477 72 91ZM61 92C61.5523 92 62 91.5523 62 91C62 90.4477 61.5523 90 61 90C60.4477 90 60 90.4477 60 91C60 91.5523 60.4477 92 61 92ZM52 91C52 91.5523 51.5523 92 51 92C50.4477 92 50 91.5523 50 91C50 90.4477 50.4477 90 51 90C51.5523 90 52 90.4477 52 91ZM41 92C41.5523 92 42 91.5523 42 91C42 90.4477 41.5523 90 41 90C40.4477 90 40 90.4477 40 91C40 91.5523 40.4477 92 41 92ZM32 91C32 91.5523 31.5523 92 31 92C30.4477 92 30 91.5523 30 91C30 90.4477 30.4477 90 31 90C31.5523 90 32 90.4477 32 91ZM21 92C21.5523 92 22 91.5523 22 91C22 90.4477 21.5523 90 21 90C20.4477 90 20 90.4477 20 91C20 91.5523 20.4477 92 21 92ZM12 91C12 91.5523 11.5523 92 11 92C10.4477 92 10 91.5523 10 91C10 90.4477 10.4477 90 11 90C11.5523 90 12 90.4477 12 91ZM1 92C1.55231 92 2 91.5523 2 91C2 90.4477 1.55231 90 1 90C0.447693 90 0 90.4477 0 91C0 91.5523 0.447693 92 1 92ZM111 102C111.552 102 112 101.552 112 101C112 100.448 111.552 100 111 100C110.448 100 110 100.448 110 101C110 101.552 110.448 102 111 102ZM102 101C102 101.552 101.552 102 101 102C100.448 102 100 101.552 100 101C100 100.448 100.448 100 101 100C101.552 100 102 100.448 102 101ZM91 102C91.5523 102 92 101.552 92 101C92 100.448 91.5523 100 91 100C90.4477 100 90 100.448 90 101C90 101.552 90.4477 102 91 102ZM82 101C82 101.552 81.5523 102 81 102C80.4477 102 80 101.552 80 101C80 100.448 80.4477 100 81 100C81.5523 100 82 100.448 82 101ZM71 102C71.5523 102 72 101.552 72 101C72 100.448 71.5523 100 71 100C70.4477 100 70 100.448 70 101C70 101.552 70.4477 102 71 102ZM62 101C62 101.552 61.5523 102 61 102C60.4477 102 60 101.552 60 101C60 100.448 60.4477 100 61 100C61.5523 100 62 100.448 62 101ZM51 102C51.5523 102 52 101.552 52 101C52 100.448 51.5523 100 51 100C50.4477 100 50 100.448 50 101C50 101.552 50.4477 102 51 102ZM42 101C42 101.552 41.5523 102 41 102C40.4477 102 40 101.552 40 101C40 100.448 40.4477 100 41 100C41.5523 100 42 100.448 42 101ZM31 102C31.5523 102 32 101.552 32 101C32 100.448 31.5523 100 31 100C30.4477 100 30 100.448 30 101C30 101.552 30.4477 102 31 102ZM22 101C22 101.552 21.5523 102 21 102C20.4477 102 20 101.552 20 101C20 100.448 20.4477 100 21 100C21.5523 100 22 100.448 22 101ZM11 102C11.5523 102 12 101.552 12 101C12 100.448 11.5523 100 11 100C10.4477 100 10 100.448 10 101C10 101.552 10.4477 102 11 102ZM2 101C2 101.552 1.55231 102 1 102C0.447693 102 0 101.552 0 101C0 100.448 0.447693 100 1 100C1.55231 100 2 100.448 2 101ZM112 111C112 111.552 111.552 112 111 112C110.448 112 110 111.552 110 111C110 110.448 110.448 110 111 110C111.552 110 112 110.448 112 111ZM101 112C101.552 112 102 111.552 102 111C102 110.448 101.552 110 101 110C100.448 110 100 110.448 100 111C100 111.552 100.448 112 101 112ZM92 111C92 111.552 91.5523 112 91 112C90.4477 112 90 111.552 90 111C90 110.448 90.4477 110 91 110C91.5523 110 92 110.448 92 111ZM81 112C81.5523 112 82 111.552 82 111C82 110.448 81.5523 110 81 110C80.4477 110 80 110.448 80 111C80 111.552 80.4477 112 81 112ZM72 111C72 111.552 71.5523 112 71 112C70.4477 112 70 111.552 70 111C70 110.448 70.4477 110 71 110C71.5523 110 72 110.448 72 111ZM61 112C61.5523 112 62 111.552 62 111C62 110.448 61.5523 110 61 110C60.4477 110 60 110.448 60 111C60 111.552 60.4477 112 61 112ZM52 111C52 111.552 51.5523 112 51 112C50.4477 112 50 111.552 50 111C50 110.448 50.4477 110 51 110C51.5523 110 52 110.448 52 111ZM41 112C41.5523 112 42 111.552 42 111C42 110.448 41.5523 110 41 110C40.4477 110 40 110.448 40 111C40 111.552 40.4477 112 41 112ZM32 111C32 111.552 31.5523 112 31 112C30.4477 112 30 111.552 30 111C30 110.448 30.4477 110 31 110C31.5523 110 32 110.448 32 111ZM21 112C21.5523 112 22 111.552 22 111C22 110.448 21.5523 110 21 110C20.4477 110 20 110.448 20 111C20 111.552 20.4477 112 21 112ZM12 111C12 111.552 11.5523 112 11 112C10.4477 112 10 111.552 10 111C10 110.448 10.4477 110 11 110C11.5523 110 12 110.448 12 111ZM1 112C1.55231 112 2 111.552 2 111C2 110.448 1.55231 110 1 110C0.447693 110 0 110.448 0 111C0 111.552 0.447693 112 1 112Z" fill="#D5D2D0"/>
</svg>
